<?xml version="1.0" standalone="no"?>
<!DOCTYPE svg PUBLIC "-//W3C//DTD SVG 20010904//EN"
 "http://www.w3.org/TR/2001/REC-SVG-20010904/DTD/svg10.dtd">
<svg version="1.0" xmlns="http://www.w3.org/2000/svg"
 width="200.000000pt" height="200.000000pt" viewBox="0 0 200.000000 200.000000"
 preserveAspectRatio="xMidYMid meet">
<metadata>
Created by potrace 1.11, written by Peter Selinger 2001-2013
</metadata>
<g transform="translate(0.000000,200.000000) scale(0.100000,-0.100000)"
fill="#000000" stroke="none">
<path d="M90 1477 l0 -433 428 1 c235 1 430 3 433 3 3 1 5 194 5 430 l-1 427
-432 3 -433 2 0 -433z"/>
<path d="M1049 1898 c-3 -37 -4 -825 -1 -839 3 -13 52 -15 430 -15 l427 1 3
433 2 432 -430 0 c-337 0 -430 -3 -431 -12z"/>
<path d="M100 952 c-6 -2 -10 -156 -10 -433 l0 -429 433 0 433 0 0 424 c-1
233 -5 428 -9 432 -7 8 -825 13 -847 6z"/>
<path d="M1051 940 c-4 -8 -6 -202 -6 -430 l1 -415 432 -3 432 -2 0 430 c0
337 -3 430 -12 431 -7 1 -199 2 -426 3 -359 1 -415 -1 -421 -14z"/>
</g>
</svg>
